<svg width="128" height="128" xmlns="http://www.w3.org/2000/svg">

 <g>
  <title>background</title>
  <rect fill="none" id="canvas_background" height="130" width="130" y="-1" x="-1"/>
 </g>
 <g>
  <title>Layer 1</title>
  <g id="svg_1">
   <g id="svg_2">
    <path fill="#6f8c30" id="svg_3" d="m75.43,80.14l-4.88,-2.4l-2.4,4.88c-1.01,2.04 -1.16,4.36 -0.42,6.52c0.73,2.16 2.26,3.9 4.31,4.91l4.88,2.4l2.4,-4.88c2.07,-4.22 0.33,-9.35 -3.89,-11.43zm1.64,10.32l-1.3,2.63l-2.63,-1.3c-1.45,-0.71 -2.53,-1.94 -3.05,-3.47c-0.52,-1.52 -0.41,-3.16 0.3,-4.61l1.3,-2.63l2.63,1.3c2.99,1.48 4.22,5.1 2.75,8.08z"/>
    <path fill="#6f8c30" id="svg_4" d="m88.06,86.4c0.04,0 0.09,0 0.13,0l5.43,-0.08l-0.08,-5.43c-0.04,-2.28 -0.96,-4.41 -2.59,-5.99c-1.64,-1.59 -3.79,-2.42 -6.07,-2.41l-5.43,0.08l0.08,5.43c0.07,4.66 3.89,8.4 8.53,8.4zm-6.07,-11.37l2.93,-0.04c1.63,-0.02 3.13,0.58 4.29,1.7s1.81,2.63 1.83,4.24l0.04,2.93l-2.93,0.04c-0.03,0 -0.06,0 -0.09,0c-3.28,0 -5.98,-2.64 -6.03,-5.94l-0.04,-2.93z"/>
    <path fill="#6f8c30" id="svg_5" d="m96.3,60.73c-2.18,-0.67 -4.49,-0.45 -6.5,0.62l-4.8,2.55l2.55,4.8c1.07,2.01 2.86,3.49 5.04,4.16c0.83,0.25 1.67,0.38 2.51,0.38c1.38,0 2.74,-0.34 3.99,-1l4.8,-2.55l-2.55,-4.8c-1.07,-2.01 -2.86,-3.49 -5.04,-4.16zm1.62,9.3c-1.42,0.76 -3.05,0.91 -4.59,0.44c-1.54,-0.47 -2.8,-1.52 -3.56,-2.94l-1.38,-2.59l2.59,-1.38c1.42,-0.75 3.05,-0.91 4.59,-0.44c1.54,0.47 2.8,1.52 3.56,2.94l1.38,2.59l-2.59,1.38z"/>
    <path fill="#6f8c30" id="svg_6" d="m94.63,45.7c-2.24,0.4 -4.2,1.65 -5.5,3.51l-3.11,4.46l4.46,3.11c1.48,1.04 3.19,1.53 4.87,1.53c2.69,0 5.35,-1.27 7.01,-3.64l3.11,-4.46l-4.46,-3.11c-1.88,-1.3 -4.14,-1.8 -6.38,-1.4zm7.34,5.13l-1.68,2.41c-1.9,2.73 -5.67,3.4 -8.4,1.49l-2.41,-1.68l1.68,-2.41c0.92,-1.32 2.3,-2.2 3.89,-2.48c1.59,-0.28 3.19,0.07 4.51,0.99l2.41,1.68z"/>
    <path fill="#6f8c30" id="svg_7" d="m82.24,44.09l5.38,0.74c0.39,0.05 0.78,0.08 1.17,0.08c4.19,0 7.86,-3.1 8.44,-7.37l0.74,-5.38l-5.38,-0.74c-4.65,-0.64 -8.97,2.63 -9.61,7.29l-0.74,5.38zm3.22,-5.04c0.45,-3.29 3.51,-5.6 6.8,-5.15l2.91,0.4l-0.4,2.91c-0.45,3.29 -3.5,5.6 -6.8,5.15l-2.91,-0.4l0.4,-2.91z"/>
    <path fill="#6f8c30" id="svg_8" d="m74.52,37.28l5.13,-1.79c2.15,-0.75 3.88,-2.29 4.87,-4.35c0.99,-2.05 1.12,-4.37 0.37,-6.52l-1.79,-5.13l-5.13,1.79c-4.44,1.55 -6.79,6.42 -5.24,10.87l1.79,5.13zm4.28,-13.63l2.77,-0.97l0.97,2.77c0.53,1.52 0.44,3.16 -0.26,4.61c-0.7,1.45 -1.92,2.54 -3.44,3.07l-2.77,0.97l-0.97,-2.77c-1.1,-3.14 0.56,-6.59 3.7,-7.68z"/>
    <path fill="#6f8c30" id="svg_9" d="m64.55,34.74l3.75,-3.93c3.25,-3.4 3.12,-8.81 -0.28,-12.06l-3.93,-3.75l-3.75,3.93c-1.57,1.65 -2.41,3.81 -2.36,6.09c0.05,2.28 0.99,4.4 2.64,5.97l3.93,3.75zm-2.4,-14.09l2.03,-2.12l2.12,2.03c2.41,2.3 2.49,6.12 0.2,8.53l-2.03,2.12l-2.12,-2.03c-1.17,-1.11 -1.83,-2.61 -1.86,-4.22s0.55,-3.15 1.66,-4.31z"/>
    <path fill="#6f8c30" id="svg_10" d="m49.31,35.46l5.21,1.55l1.55,-5.21c0.65,-2.18 0.41,-4.49 -0.67,-6.49c-1.08,-2 -2.88,-3.46 -5.07,-4.11l-5.21,-1.55l-1.55,5.21c-1.35,4.5 1.23,9.26 5.74,10.6zm-3.35,-9.9l0.84,-2.81l2.81,0.84c1.54,0.46 2.82,1.49 3.58,2.91c0.77,1.42 0.94,3.05 0.48,4.59l-0.84,2.81l-2.81,-0.84c-3.18,-0.95 -5.01,-4.31 -4.06,-7.5z"/>
    <path fill="#6f8c30" id="svg_11" d="m34.89,43.24c1.44,0.99 3.1,1.5 4.81,1.5c0.52,0 1.05,-0.05 1.58,-0.15l5.34,-0.99l-0.99,-5.34c-0.42,-2.24 -1.68,-4.18 -3.56,-5.47c-1.88,-1.29 -4.15,-1.77 -6.39,-1.36l-5.34,0.99l0.99,5.34c0.42,2.25 1.68,4.19 3.56,5.48zm1.25,-9.35c1.58,-0.29 3.19,0.05 4.52,0.96c1.33,0.91 2.22,2.29 2.51,3.87l0.53,2.88l-2.89,0.54c-1.58,0.29 -3.19,-0.05 -4.51,-0.96c-1.33,-0.91 -2.22,-2.29 -2.51,-3.87l-0.54,-2.89l2.89,-0.53z"/>
    <path fill="#6f8c30" id="svg_12" d="m31.98,58.09c0.37,0.05 0.75,0.07 1.11,0.07c1.87,0 3.68,-0.61 5.19,-1.77l4.31,-3.32l-3.32,-4.31c-1.39,-1.81 -3.4,-2.96 -5.66,-3.25c-2.26,-0.29 -4.5,0.31 -6.3,1.7l-4.31,3.32l3.32,4.31c1.39,1.8 3.4,2.96 5.66,3.25zm-3.15,-8.89c1.28,-0.98 2.86,-1.41 4.46,-1.2c1.6,0.21 3.02,1.02 4,2.3l1.79,2.32l-2.33,1.79c-1.28,0.98 -2.86,1.41 -4.46,1.2c-1.6,-0.21 -3.02,-1.02 -4,-2.3l-1.79,-2.32l2.33,-1.79z"/>
    <path fill="#6f8c30" id="svg_13" d="m36.15,72.64c2.15,-0.77 3.86,-2.33 4.84,-4.39l2.32,-4.91l-4.91,-2.32c-2.06,-0.97 -4.38,-1.09 -6.52,-0.32c-2.15,0.77 -3.86,2.33 -4.84,4.39l-2.32,4.91l4.91,2.32c1.16,0.55 2.4,0.82 3.64,0.82c0.97,0 1.94,-0.17 2.88,-0.5zm-5.45,-2.58l-2.65,-1.25l1.25,-2.65c0.69,-1.46 1.9,-2.56 3.42,-3.1c1.52,-0.54 3.15,-0.46 4.61,0.23l2.65,1.25l-1.25,2.65c-0.69,1.46 -1.9,2.56 -3.42,3.1c-1.51,0.54 -3.15,0.46 -4.61,-0.23z"/>
    <path fill="#6f8c30" id="svg_14" d="m43.2,72.32c-2.28,0.07 -4.39,1.02 -5.95,2.69c-1.56,1.66 -2.38,3.83 -2.31,6.11l0.17,5.43l5.43,-0.17c4.7,-0.15 8.41,-4.09 8.26,-8.79l-0.17,-5.43l-5.43,0.16zm-2.73,11.55l-2.93,0.09l-0.09,-2.93c-0.05,-1.61 0.53,-3.14 1.63,-4.32c1.1,-1.17 2.6,-1.85 4.21,-1.9l2.93,-0.09l0.09,2.93c0.1,3.33 -2.52,6.12 -5.84,6.22z"/>
    <path fill="#6f8c30" id="svg_15" d="m60.73,88.81c0.63,-2.19 0.38,-4.49 -0.73,-6.49l-2.63,-4.76l-4.76,2.63c-2,1.1 -3.44,2.91 -4.08,5.1c-0.63,2.19 -0.37,4.49 0.73,6.49l2.63,4.76l4.76,-2.63l0,0c2,-1.1 3.45,-2.91 4.08,-5.1zm-5.28,2.91l-2.57,1.42l-1.42,-2.57c-0.78,-1.41 -0.96,-3.04 -0.51,-4.59s1.47,-2.83 2.88,-3.61l2.57,-1.42l1.42,2.57c0.78,1.41 0.96,3.04 0.51,4.59c-0.45,1.55 -1.47,2.84 -2.88,3.61z"/>
    <polygon fill="#592c1c" stroke="null" id="svg_16" points="65.56999206542969,68.52999877929688 70.80999755859375,63.28999328613281 78.20999908447266,65.1500015258789 78.81999206542969,62.730003356933594 72.8699951171875,61.230003356933594 80.2300033569336,53.87000274658203 78.46000671386719,52.11000061035156 74,56.56999969482422 74,47.87000274658203 71.5,47.87000274658203 71.5,59.07000732421875 65.56999206542969,64.98999786376953 65.56999206542969,44.11000061035156 63.06999969482422,44.11000061035156 63.06999969482422,48.899993896484375 59.12000274658203,46.340003967285156 57.7599983215332,48.44000244140625 63.06999969482422,51.87000274658203 63.06999969482422,69.77999877929688 58.15999984741211,64.87000274658203 58.15999984741211,56.090003967285156 55.65999984741211,56.090003967285156 55.65999984741211,62.37000274658203 48.23999786376953,54.94999694824219 46.470001220703125,56.719993591308594 50.72999954223633,60.980003356933594 46.64999771118164,62.79999542236328 47.66999816894531,65.08000183105469 52.630001068115234,62.87000274658203 63.06999969482422,73.31999969482422 63.06999969482422,107.70999145507812 31.68000030517578,107.70999145507812 31.68000030517578,110.20999145507812 98.78999328613281,110.20999145507812 98.78999328613281,107.70999145507812 65.56999206542969,107.70999145507812 "/>
   </g>
  </g>
 </g>
</svg>